<?xml version="1.0" standalone="no"?>
<!DOCTYPE svg PUBLIC "-//W3C//DTD SVG 20010904//EN"
 "http://www.w3.org/TR/2001/REC-SVG-20010904/DTD/svg10.dtd">
<svg version="1.0" xmlns="http://www.w3.org/2000/svg"
 width="512.000000pt" height="512.000000pt" viewBox="0 0 512.000000 512.000000"
 preserveAspectRatio="xMidYMid meet">
<metadata>
Created by potrace 1.11, written by Peter Selinger 2001-2013
</metadata>
<g transform="translate(0.000000,512.000000) scale(0.100000,-0.100000)"
fill="#000000" stroke="none">
<path d="M2284 4265 c-159 -34 -325 -166 -398 -315 -116 -239 -73 -487 118
-675 125 -123 237 -170 406 -170 173 0 283 47 410 174 127 128 173 235 174
406 2 174 -49 293 -178 420 -150 148 -333 203 -532 160z"/>
<path d="M1460 2687 c-184 -55 -342 -211 -401 -397 -25 -76 -30 -238 -10 -310
54 -195 214 -361 411 -426 75 -24 255 -25 324 0 113 39 161 70 246 155 134
135 188 273 176 451 -11 169 -83 304 -224 422 -140 117 -343 158 -522 105z"/>
<path d="M3430 2009 c-129 -16 -243 -73 -338 -168 -84 -84 -124 -151 -159
-266 -21 -69 -20 -234 2 -311 50 -175 204 -337 390 -409 70 -28 264 -28 348
-1 133 42 293 182 356 312 81 167 81 343 -1 514 -75 156 -243 290 -398 318
-93 17 -132 19 -200 11z"/>
</g>
</svg>
